<?xml version="1.0" encoding="iso-8859-1"?>
<!-- Generator: Adobe Illustrator 19.0.0, SVG Export Plug-In . SVG Version: 6.00 Build 0)  -->
<svg version="1.1" id="Layer_1" xmlns="http://www.w3.org/2000/svg" xmlns:xlink="http://www.w3.org/1999/xlink" x="0px" y="0px"
	 viewBox="0 0 512 512" style="enable-background:new 0 0 512 512;" xml:space="preserve">
<polygon style="fill:#010101;" points="299.38,0 88.032,122.82 88.032,440.07 212.62,512 423.968,389.18 423.968,71.93 "/>
<polygon style="fill:#1D1D1F;" points="212.62,194.749 212.62,512 88.033,440.07 88.033,122.82 "/>
<polygon style="fill:#010101;" points="135.631,364.148 212.406,359.486 212.406,199.851 135.631,172.428 "/>
<polygon style="fill:#A50020;" points="100.541,429.089 100.541,148.244 200.112,205.731 200.112,486.576 "/>
<path style="fill:#720017;" d="M144.407,426.103c11.159,6.443,20.235,1.271,20.271-11.552s-8.981-28.441-20.139-34.882
	c-11.158-6.442-20.235-1.271-20.271,11.552C124.232,404.044,133.248,419.661,144.407,426.103z"/>
<polygon style="fill:#010101;" points="212.62,194.749 212.62,512 423.968,389.18 423.968,71.93 "/>
<polygon style="fill:#3E3D43;" points="88.033,122.82 299.38,0 423.968,71.93 212.62,194.749 135.631,167.203 "/>
<polygon style="fill:#2E2E30;" points="135.631,167.203 135.631,358.924 88.033,283.35 88.033,122.82 "/>
<polygon style="fill:#1D1D1F;" points="212.406,194.626 212.406,354.261 135.631,358.924 135.631,167.203 "/>
<polygon style="fill:#A66206;" points="135.474,177.343 95.291,139.873 95.291,279.332 135.474,346.319 204.834,341.251 
	204.834,202.705 "/>
<polygon style="fill:#ACABB1;" points="135.474,346.319 95.291,279.332 95.291,139.873 135.474,177.343 "/>
<polygon style="fill:#898890;" points="135.474,177.343 204.834,202.705 204.834,341.251 135.474,346.319 "/>
<polygon style="fill:#A50020;" points="391.238,261.305 296.615,316.293 296.615,425.733 308.669,423.589 395.485,373.137 
	395.485,272.725 "/>
<polygon style="fill:#820018;" points="308.669,323.177 395.485,272.725 395.485,373.137 308.669,423.589 "/>
<polygon style="fill:#C60024;" points="395.485,272.725 391.238,261.305 296.615,316.293 308.669,323.177 "/>
<polygon style="fill:#A50020;" points="308.669,423.589 296.615,425.733 296.615,316.293 308.669,323.177 "/>
<g>
	<path style="fill:#898890;" d="M152.98,425.496l4.281-2.505c3.061-1.778,4.959-5.562,4.975-10.938
		c0.03-10.822-7.579-24.002-16.997-29.44c-4.74-2.737-9.033-2.99-12.133-1.188l-4.281,2.505c0.009-0.005,0.02-0.01,0.03-0.017
		c-3.078,1.772-4.989,5.561-5.004,10.953c-0.03,10.822,7.579,24.002,16.997,29.44c4.798,2.77,9.14,2.995,12.249,1.118
		C153.057,425.449,153.019,425.473,152.98,425.496z"/>
	<path style="fill:#898890;" d="M152.98,425.496l4.281-2.505c3.061-1.778,4.959-5.562,4.975-10.938
		c0.03-10.822-7.579-24.002-16.997-29.44c-4.74-2.737-9.033-2.99-12.133-1.188l-4.281,2.505c3.1-1.801,7.395-1.547,12.133,1.188
		c9.418,5.438,17.027,18.618,16.997,29.44C157.939,419.934,156.041,423.717,152.98,425.496z"/>
</g>
<path style="fill:#ACABB1;" d="M140.846,424.307c9.418,5.438,17.078,1.072,17.108-9.749c0.03-10.822-7.579-24.002-16.997-29.44
	c-9.418-5.438-17.078-1.072-17.108,9.749C123.819,405.689,131.429,418.871,140.846,424.307z"/>
<g>
	<path style="fill:#2E2E30;" d="M303.918,206.376c-1.617,0.889-2.956,3.1-2.988,4.938c-0.032,1.837,1.253,2.605,2.87,1.715
		c1.619-0.89,2.958-3.103,2.99-4.939C306.823,206.252,305.536,205.486,303.918,206.376"/>
	<path style="fill:#2E2E30;" d="M315.863,199.805c-1.62,0.891-2.956,3.1-2.988,4.938c-0.032,1.837,1.251,2.606,2.87,1.715
		c1.617-0.889,2.956-3.102,2.988-4.938C318.766,199.681,317.48,198.914,315.863,199.805"/>
	<path style="fill:#2E2E30;" d="M327.806,193.233c-1.617,0.89-2.956,3.1-2.988,4.938c-0.032,1.837,1.253,2.605,2.87,1.715
		c1.619-0.891,2.958-3.103,2.99-4.939C330.711,193.109,329.425,192.343,327.806,193.233"/>
	<path style="fill:#2E2E30;" d="M339.752,186.662c-1.62,0.891-2.958,3.101-2.99,4.939c-0.032,1.837,1.253,2.605,2.872,1.714
		c1.617-0.89,2.956-3.102,2.988-4.938C342.655,186.538,341.368,185.772,339.752,186.662"/>
	<path style="fill:#2E2E30;" d="M351.695,180.091c-1.617,0.889-2.956,3.1-2.988,4.938c-0.032,1.837,1.253,2.605,2.87,1.715
		c1.619-0.891,2.956-3.102,2.988-4.938C354.599,179.968,353.315,179.201,351.695,180.091"/>
	<path style="fill:#2E2E30;" d="M363.64,173.518c-1.62,0.891-2.958,3.101-2.99,4.939c-0.032,1.837,1.253,2.605,2.872,1.714
		c1.617-0.89,2.956-3.102,2.988-4.938C366.544,173.395,365.258,172.629,363.64,173.518"/>
	<path style="fill:#2E2E30;" d="M375.584,166.948c-1.62,0.891-2.956,3.1-2.988,4.938c-0.032,1.837,1.252,2.606,2.87,1.715
		c1.62-0.89,2.956-3.102,2.988-4.938C378.487,166.825,377.204,166.057,375.584,166.948"/>
	<path style="fill:#2E2E30;" d="M387.527,160.377c-1.617,0.89-2.956,3.1-2.988,4.938c-0.032,1.837,1.253,2.605,2.87,1.715
		c1.619-0.891,2.958-3.103,2.99-4.939C390.433,160.253,389.147,159.487,387.527,160.377"/>
	<path style="fill:#2E2E30;" d="M303.717,217.649c-1.617,0.889-2.956,3.102-2.988,4.94c-0.032,1.837,1.253,2.605,2.87,1.715
		c1.62-0.891,2.958-3.103,2.99-4.939C306.622,217.527,305.336,216.759,303.717,217.649"/>
	<path style="fill:#2E2E30;" d="M315.662,211.078c-1.619,0.891-2.956,3.102-2.988,4.94c-0.032,1.837,1.251,2.606,2.87,1.715
		c1.617-0.89,2.956-3.102,2.988-4.938C318.565,210.957,317.28,210.188,315.662,211.078"/>
	<path style="fill:#2E2E30;" d="M327.605,204.507c-1.617,0.89-2.956,3.102-2.988,4.94c-0.032,1.837,1.253,2.605,2.87,1.715
		c1.62-0.89,2.958-3.103,2.99-4.939C330.51,204.384,329.225,203.616,327.605,204.507"/>
	<path style="fill:#2E2E30;" d="M339.551,197.935c-1.619,0.891-2.958,3.103-2.99,4.941c-0.032,1.837,1.253,2.605,2.872,1.714
		c1.617-0.89,2.956-3.102,2.988-4.938C342.454,197.813,341.168,197.045,339.551,197.935"/>
	<path style="fill:#2E2E30;" d="M351.494,191.364c-1.617,0.89-2.956,3.102-2.988,4.94c-0.032,1.837,1.253,2.605,2.87,1.715
		c1.62-0.891,2.956-3.102,2.988-4.938C354.397,191.243,353.114,190.474,351.494,191.364"/>
	<path style="fill:#2E2E30;" d="M363.44,184.792c-1.619,0.891-2.958,3.103-2.99,4.941c-0.032,1.837,1.253,2.605,2.872,1.714
		c1.617-0.889,2.956-3.102,2.988-4.938C366.343,184.671,365.057,183.903,363.44,184.792"/>
	<path style="fill:#2E2E30;" d="M375.384,178.222c-1.62,0.89-2.956,3.102-2.988,4.94c-0.032,1.837,1.251,2.606,2.87,1.715
		s2.956-3.102,2.988-4.938C378.286,178.1,377.002,177.33,375.384,178.222"/>
	<path style="fill:#2E2E30;" d="M387.327,171.65c-1.617,0.89-2.956,3.102-2.988,4.94c-0.032,1.837,1.253,2.605,2.87,1.715
		c1.62-0.891,2.958-3.103,2.99-4.939C390.231,171.528,388.946,170.76,387.327,171.65"/>
	<path style="fill:#2E2E30;" d="M303.516,228.926c-1.617,0.89-2.956,3.102-2.988,4.94c-0.032,1.837,1.253,2.605,2.87,1.715
		c1.619-0.891,2.958-3.103,2.99-4.939C306.421,228.802,305.135,228.034,303.516,228.926"/>
	<path style="fill:#2E2E30;" d="M315.462,222.353c-1.62,0.89-2.956,3.102-2.988,4.94c-0.032,1.837,1.251,2.606,2.87,1.715
		c1.617-0.89,2.956-3.102,2.988-4.938C318.364,222.232,317.079,221.464,315.462,222.353"/>
	<path style="fill:#2E2E30;" d="M327.405,215.782c-1.617,0.889-2.956,3.102-2.988,4.94c-0.032,1.837,1.253,2.605,2.87,1.715
		c1.619-0.891,2.958-3.103,2.99-4.939C330.309,215.66,329.024,214.892,327.405,215.782"/>
	<path style="fill:#2E2E30;" d="M339.351,209.211c-1.62,0.89-2.958,3.103-2.99,4.941c-0.032,1.837,1.253,2.605,2.872,1.714
		c1.617-0.89,2.956-3.102,2.988-4.938C342.254,209.089,340.967,208.32,339.351,209.211"/>
	<path style="fill:#2E2E30;" d="M351.294,202.639c-1.617,0.889-2.956,3.102-2.988,4.94c-0.032,1.837,1.253,2.605,2.87,1.715
		c1.619-0.891,2.956-3.102,2.988-4.938C354.197,202.518,352.913,201.749,351.294,202.639"/>
	<path style="fill:#2E2E30;" d="M363.239,196.068c-1.62,0.891-2.958,3.103-2.99,4.941c-0.032,1.837,1.253,2.605,2.872,1.714
		c1.617-0.889,2.956-3.102,2.988-4.938C366.143,195.946,364.856,195.178,363.239,196.068"/>
	<path style="fill:#2E2E30;" d="M375.183,189.497c-1.619,0.891-2.956,3.102-2.988,4.94c-0.032,1.837,1.251,2.606,2.87,1.715
		c1.619-0.89,2.956-3.102,2.988-4.938C378.086,189.376,376.802,188.607,375.183,189.497"/>
	<path style="fill:#2E2E30;" d="M387.126,182.926c-1.617,0.89-2.956,3.102-2.988,4.94c-0.032,1.837,1.253,2.605,2.87,1.715
		c1.62-0.891,2.958-3.103,2.99-4.939C390.031,182.803,388.746,182.035,387.126,182.926"/>
	<path style="fill:#2E2E30;" d="M303.315,240.201c-1.617,0.89-2.956,3.102-2.988,4.94c-0.032,1.837,1.253,2.605,2.87,1.715
		c1.62-0.89,2.958-3.103,2.99-4.939C306.221,240.078,304.934,239.31,303.315,240.201"/>
	<path style="fill:#2E2E30;" d="M315.261,233.629c-1.619,0.89-2.956,3.102-2.988,4.94c-0.032,1.837,1.251,2.606,2.87,1.715
		c1.617-0.89,2.956-3.102,2.988-4.938C318.164,233.507,316.877,232.739,315.261,233.629"/>
	<path style="fill:#2E2E30;" d="M327.204,227.057c-1.617,0.89-2.956,3.102-2.988,4.94c-0.032,1.837,1.253,2.605,2.87,1.715
		c1.62-0.891,2.958-3.103,2.99-4.939C330.109,226.935,328.824,226.167,327.204,227.057"/>
	<path style="fill:#2E2E30;" d="M339.149,220.486c-1.619,0.89-2.958,3.103-2.99,4.941c-0.032,1.837,1.253,2.605,2.872,1.714
		c1.617-0.889,2.956-3.102,2.988-4.938C342.053,220.365,340.767,219.596,339.149,220.486"/>
	<path style="fill:#2E2E30;" d="M351.093,213.915c-1.617,0.889-2.956,3.102-2.988,4.94c-0.032,1.837,1.253,2.605,2.87,1.715
		c1.62-0.891,2.956-3.102,2.988-4.938C353.996,213.794,352.712,213.024,351.093,213.915"/>
	<path style="fill:#2E2E30;" d="M363.038,207.343c-1.619,0.89-2.958,3.103-2.99,4.941c-0.032,1.837,1.253,2.605,2.872,1.714
		c1.617-0.889,2.956-3.102,2.988-4.938C365.942,207.221,364.656,206.453,363.038,207.343"/>
	<path style="fill:#2E2E30;" d="M374.982,200.772c-1.62,0.891-2.956,3.102-2.988,4.94c-0.032,1.837,1.251,2.606,2.87,1.715
		s2.956-3.102,2.988-4.938C377.885,200.651,376.601,199.882,374.982,200.772"/>
	<path style="fill:#2E2E30;" d="M386.925,194.201c-1.617,0.89-2.956,3.102-2.988,4.94c-0.032,1.837,1.253,2.605,2.87,1.715
		c1.619-0.89,2.958-3.103,2.99-4.939C389.83,194.079,388.545,193.311,386.925,194.201"/>
</g>
<path style="fill:#720017;" d="M356.544,381.138c-15.852,9.152-28.744,1.806-28.796-16.41c-0.051-18.215,12.757-40.4,28.609-49.553
	c15.852-9.152,28.744-1.806,28.796,16.41C385.204,349.801,372.396,371.986,356.544,381.138z"/>
<g>
</g>
<g>
</g>
<g>
</g>
<g>
</g>
<g>
</g>
<g>
</g>
<g>
</g>
<g>
</g>
<g>
</g>
<g>
</g>
<g>
</g>
<g>
</g>
<g>
</g>
<g>
</g>
<g>
</g>
</svg>
