<?xml version="1.0" encoding="UTF-8" standalone="no"?>
<!-- Generator: Adobe Illustrator 19.0.0, SVG Export Plug-In . SVG Version: 6.00 Build 0)  -->

<svg
   xmlns:dc="http://purl.org/dc/elements/1.1/"
   xmlns:cc="http://creativecommons.org/ns#"
   xmlns:rdf="http://www.w3.org/1999/02/22-rdf-syntax-ns#"
   xmlns:svg="http://www.w3.org/2000/svg"
   xmlns="http://www.w3.org/2000/svg"
   xmlns:sodipodi="http://sodipodi.sourceforge.net/DTD/sodipodi-0.dtd"
   xmlns:inkscape="http://www.inkscape.org/namespaces/inkscape"
   version="1.1"
   id="Capa_1"
   x="0px"
   y="0px"
   viewBox="0 0 54 58"
   xml:space="preserve"
   inkscape:version="0.91 r13725"
   sodipodi:docname="notebook (1).svg"
   width="54"
   height="58"><metadata
     id="metadata53"><rdf:RDF><cc:Work
         rdf:about=""><dc:format>image/svg+xml</dc:format><dc:type
           rdf:resource="http://purl.org/dc/dcmitype/StillImage" /><dc:title></dc:title></cc:Work></rdf:RDF></metadata><defs
     id="defs51" /><sodipodi:namedview
     pagecolor="#ffffff"
     bordercolor="#666666"
     borderopacity="1"
     objecttolerance="10"
     gridtolerance="10"
     guidetolerance="10"
     inkscape:pageopacity="0"
     inkscape:pageshadow="2"
     inkscape:window-width="1857"
     inkscape:window-height="1176"
     id="namedview49"
     showgrid="false"
     fit-margin-top="0"
     fit-margin-left="0"
     fit-margin-right="0"
     fit-margin-bottom="0"
     inkscape:zoom="8.137931"
     inkscape:cx="24.113985"
     inkscape:cy="32.921879"
     inkscape:window-x="1983"
     inkscape:window-y="24"
     inkscape:window-maximized="1"
     inkscape:current-layer="Capa_1" /><path
     inkscape:connector-curvature="0"
     id="path5"
     d="M 50.003,0.004 17,0.004 17,0 4,0 4,7.101 C 4.323,7.035 4.658,7 5,7 c 2.757,0 5,2.243 5,5 0,0.553 -0.448,1 -1,1 C 8.448,13 8,12.553 8,12 8,10.346 6.654,9 5,9 4.648,9 4.314,9.072 4,9.184 l 0,3.917 C 4.323,13.035 4.658,13 5,13 c 2.757,0 5,2.243 5,5 0,0.553 -0.448,1 -1,1 C 8.448,19 8,18.553 8,18 8,16.346 6.654,15 5,15 4.648,15 4.314,15.072 4,15.184 l 0,3.917 C 4.323,19.035 4.658,19 5,19 c 2.757,0 5,2.243 5,5 0,0.553 -0.448,1 -1,1 C 8.448,25 8,24.553 8,24 8,22.346 6.654,21 5,21 4.648,21 4.314,21.072 4,21.184 l 0,3.917 C 4.323,25.035 4.658,25 5,25 c 2.757,0 5,2.243 5,5 0,0.553 -0.448,1 -1,1 C 8.448,31 8,30.553 8,30 8,28.346 6.654,27 5,27 4.648,27 4.314,27.072 4,27.184 l 0,3.917 C 4.323,31.035 4.658,31 5,31 c 2.757,0 5,2.243 5,5 0,0.553 -0.448,1 -1,1 C 8.448,37 8,36.553 8,36 8,34.346 6.654,33 5,33 4.648,33 4.314,33.072 4,33.184 l 0,3.917 C 4.323,37.035 4.658,37 5,37 c 2.757,0 5,2.243 5,5 0,0.553 -0.448,1 -1,1 C 8.448,43 8,42.553 8,42 8,40.346 6.654,39 5,39 4.648,39 4.314,39.072 4,39.184 l 0,3.917 C 4.323,43.035 4.658,43 5,43 c 2.757,0 5,2.243 5,5 0,0.553 -0.448,1 -1,1 C 8.448,49 8,48.553 8,48 8,46.346 6.654,45 5,45 4.648,45 4.314,45.072 4,45.184 L 4,49 4,50 4,50.815 C 2.839,50.401 2,49.302 2,48 2,46.698 2.839,45.599 4,45.184 L 4,43.101 C 1.721,43.566 0,45.585 0,48 c 0,2.415 1.721,4.434 4,4.899 L 4,54 l 0,4 11,0 2,0 33.003,0 C 52.207,58 54,56.207 54,54.004 L 54,4 C 54,1.797 52.207,0.004 50.003,0.004 Z M 17,56 17,2.004 44.737805,2.004 45.172256,56 Z M 52,54.004 C 52,55.104 51.104,56 50.003,56 l -2.352085,0 -0.260671,-53.996 2.612756,0 C 51.104,2.004 52,2.899 52,4 Z"
     sodipodi:nodetypes="sccccsssssccsssssccsssssccsssssccsssssccsssssccsssssccccsccscccccsssscccccssccsss" /><path
     inkscape:connector-curvature="0"
     id="path7"
     d="m 0,12 c 0,0.553 0.448,1 1,1 0.552,0 1,-0.447 1,-1 C 2,10.698 2.839,9.599 4,9.184 L 4,7.101 C 1.721,7.566 0,9.585 0,12 Z" /><path
     inkscape:connector-curvature="0"
     id="path9"
     d="m 0,18 c 0,0.553 0.448,1 1,1 0.552,0 1,-0.447 1,-1 0,-1.302 0.839,-2.401 2,-2.816 L 4,13.101 C 1.721,13.566 0,15.585 0,18 Z" /><path
     inkscape:connector-curvature="0"
     id="path11"
     d="m 0,24 c 0,0.553 0.448,1 1,1 0.552,0 1,-0.447 1,-1 0,-1.302 0.839,-2.401 2,-2.816 L 4,19.101 C 1.721,19.566 0,21.585 0,24 Z" /><path
     inkscape:connector-curvature="0"
     id="path13"
     d="m 0,30 c 0,0.553 0.448,1 1,1 0.552,0 1,-0.447 1,-1 0,-1.302 0.839,-2.401 2,-2.816 L 4,25.101 C 1.721,25.566 0,27.585 0,30 Z" /><path
     inkscape:connector-curvature="0"
     id="path15"
     d="m 0,36 c 0,0.553 0.448,1 1,1 0.552,0 1,-0.447 1,-1 0,-1.302 0.839,-2.401 2,-2.816 L 4,31.101 C 1.721,31.566 0,33.585 0,36 Z" /><path
     inkscape:connector-curvature="0"
     id="path17"
     d="m 0,42 c 0,0.553 0.448,1 1,1 0.552,0 1,-0.447 1,-1 0,-1.302 0.839,-2.401 2,-2.816 L 4,37.101 C 1.721,37.566 0,39.585 0,42 Z" /><g
     id="g19"
     transform="translate(-2,0)" /><g
     id="g21"
     transform="translate(-2,0)" /><g
     id="g23"
     transform="translate(-2,0)" /><g
     id="g25"
     transform="translate(-2,0)" /><g
     id="g27"
     transform="translate(-2,0)" /><g
     id="g29"
     transform="translate(-2,0)" /><g
     id="g31"
     transform="translate(-2,0)" /><g
     id="g33"
     transform="translate(-2,0)" /><g
     id="g35"
     transform="translate(-2,0)" /><g
     id="g37"
     transform="translate(-2,0)" /><g
     id="g39"
     transform="translate(-2,0)" /><g
     id="g41"
     transform="translate(-2,0)" /><g
     id="g43"
     transform="translate(-2,0)" /><g
     id="g45"
     transform="translate(-2,0)" /><g
     id="g47"
     transform="translate(-2,0)" /><g
     id="g4213"
     transform="translate(27.425395,-0.91234669)"><rect
       y="8.164073"
       x="-8.7368431"
       height="17.386795"
       width="20.167284"
       id="rect4194"
       style="fill:#ffffff;fill-opacity:1;stroke:#000000;stroke-width:2;stroke-linecap:round;stroke-linejoin:round;stroke-miterlimit:4;stroke-dasharray:none;stroke-dashoffset:0;stroke-opacity:1" /><rect
       y="10.99238"
       x="8.1894054"
       height="4.2576218"
       width="7.5594511"
       id="rect4196"
       style="fill:#ffffff;fill-opacity:1;stroke:#000000;stroke-width:2;stroke-linecap:round;stroke-linejoin:round;stroke-miterlimit:4;stroke-dasharray:none;stroke-dashoffset:0;stroke-opacity:1" /><rect
       y="17.639484"
       x="8.1894054"
       height="4.2576218"
       width="7.5594511"
       id="rect4196-3"
       style="fill:#ffffff;fill-opacity:1;stroke:#000000;stroke-width:2;stroke-linecap:round;stroke-linejoin:round;stroke-miterlimit:4;stroke-dasharray:none;stroke-dashoffset:0;stroke-opacity:1" /></g><g
     transform="translate(-3.3544624,-0.15050926)"
     id="g15"><circle
       id="circle17"
       r="9.7959995"
       cy="42.813999"
       cx="42.777"
       style="fill:#d0e8f9" /><path
       inkscape:connector-curvature="0"
       id="path19"
       d="M 46.33,33.693 33.656,46.367 c 0.706,1.81 1.93,3.357 3.495,4.459 L 50.789,37.188 C 49.687,35.623 48.14,34.399 46.33,33.693 Z"
       style="fill:#eaf6fd" /><path
       inkscape:connector-curvature="0"
       id="path21"
       d="m 56.723,56.309 -5.97,-6.244 c 1.746,-1.919 2.82,-4.458 2.82,-7.251 0,-5.953 -4.843,-10.796 -10.796,-10.796 -5.953,0 -10.796,4.843 -10.796,10.796 0,5.953 4.843,10.796 10.796,10.796 2.442,0 4.689,-0.824 6.499,-2.196 l 6.001,6.276 C 55.474,57.896 55.736,58 56,58 c 0.249,0 0.497,-0.092 0.691,-0.277 0.399,-0.382 0.414,-1.015 0.032,-1.414 z M 33.982,42.814 c 0,-4.85 3.946,-8.796 8.796,-8.796 4.85,0 8.796,3.946 8.796,8.796 0,4.85 -3.946,8.796 -8.796,8.796 -4.85,0 -8.796,-3.945 -8.796,-8.796 z"
       style="fill:#8697cb" /></g></svg>