<?xml version="1.0" encoding="UTF-8" standalone="no"?>
<!-- Created with Inkscape (http://www.inkscape.org/) -->

<svg
   xmlns:dc="http://purl.org/dc/elements/1.1/"
   xmlns:cc="http://creativecommons.org/ns#"
   xmlns:rdf="http://www.w3.org/1999/02/22-rdf-syntax-ns#"
   xmlns:svg="http://www.w3.org/2000/svg"
   xmlns="http://www.w3.org/2000/svg"
   xmlns:sodipodi="http://sodipodi.sourceforge.net/DTD/sodipodi-0.dtd"
   xmlns:inkscape="http://www.inkscape.org/namespaces/inkscape"
   width="99.156998mm"
   height="21.515205mm"
   viewBox="0 0 99.156998 21.515205"
   version="1.1"
   id="svg1048"
   inkscape:version="0.92.3 (2405546, 2018-03-11)"
   sodipodi:docname="servicerobotics-ulm-white-bg.svg"
   inkscape:export-filename="servicrobotics-ulm-white.bg.png"
   inkscape:export-xdpi="118.05611"
   inkscape:export-ydpi="118.05611">
  <defs
     id="defs1042" />
  <sodipodi:namedview
     id="base"
     pagecolor="#ffffff"
     bordercolor="#666666"
     borderopacity="1.0"
     inkscape:pageopacity="0.0"
     inkscape:pageshadow="2"
     inkscape:zoom="1.979899"
     inkscape:cx="193.47559"
     inkscape:cy="113.76058"
     inkscape:document-units="mm"
     inkscape:current-layer="layer1"
     showgrid="false"
     fit-margin-top="0"
     fit-margin-left="0"
     fit-margin-right="0"
     fit-margin-bottom="0"
     inkscape:window-width="1853"
     inkscape:window-height="1172"
     inkscape:window-x="1987"
     inkscape:window-y="0"
     inkscape:window-maximized="1" />
  <metadata
     id="metadata1045">
    <rdf:RDF>
      <cc:Work
         rdf:about="">
        <dc:format>image/svg+xml</dc:format>
        <dc:type
           rdf:resource="http://purl.org/dc/dcmitype/StillImage" />
        <dc:title></dc:title>
      </cc:Work>
    </rdf:RDF>
  </metadata>
  <g
     inkscape:label="Layer 1"
     inkscape:groupmode="layer"
     id="layer1"
     transform="translate(-49.979401,-130.49107)">
    <rect
       style="fill:#ffffff;fill-opacity:1;stroke-width:0.26334405"
       id="rect1950"
       width="99.156998"
       height="21.515205"
       x="49.979401"
       y="130.49107"
       ry="2.6598034" />
    <g
       id="g3797"
       transform="matrix(0.14845298,0,0,0.14845298,42.008533,98.015169)"
       inkscape:export-filename="/mnt/ssh/zafh/docs/logos/servicerobotik-ulm/logo.png"
       inkscape:export-xdpi="300.1369"
       inkscape:export-ydpi="300.1369">
      <path
         inkscape:connector-curvature="0"
         d="m 77.679245,350.57781 -0.269609,-1.64162 c 0.66304,-0.0939 1.170305,-0.35149 1.520797,-0.77288 0.351491,-0.42539 0.531231,-1.01753 0.531231,-1.77443 0,-0.75691 -0.156773,-1.33407 -0.468322,-1.70454 -0.312547,-0.37046 -0.675022,-0.5502 -1.092418,-0.5502 -0.378451,0 -0.671028,0.16776 -0.888712,0.49528 -0.148785,0.23067 -0.33152,0.79585 -0.562186,1.70054 -0.308553,1.21724 -0.577164,2.06401 -0.803836,2.53932 -0.221679,0.46833 -0.53822,0.8308 -0.935645,1.07245 -0.398423,0.24664 -0.838785,0.37146 -1.322085,0.37146 -0.437366,0 -0.838785,-0.10185 -1.217237,-0.30056 -0.374457,-0.20271 -0.683011,-0.47631 -0.928655,-0.82281 -0.194718,-0.26162 -0.358481,-0.61711 -0.491288,-1.05747 -0.132808,-0.45234 -0.198712,-0.93265 -0.198712,-1.44291 0,-0.77687 0.112836,-1.4519 0.331519,-2.03605 0.222678,-0.58116 0.526238,-1.01853 0.90469,-1.29512 0.378452,-0.2776 0.885717,-0.47232 1.517802,-0.57417 l 0.217684,1.64661 c -0.502272,0.0699 -0.892707,0.28858 -1.1733,0.63608 -0.281592,0.35848 -0.417396,0.85376 -0.417396,1.50882 0,0.7569 0.12482,1.30311 0.374458,1.62664 0.253633,0.32753 0.549205,0.49129 0.888713,0.49129 0.214689,0 0.409407,-0.0699 0.581158,-0.19871 0.17974,-0.1398 0.327526,-0.3505 0.441361,-0.63908 0.06191,-0.16776 0.2067,-0.65605 0.424385,-1.47087 0.320536,-1.1743 0.578163,-1.99711 0.780869,-2.46942 0.194718,-0.46732 0.487294,-0.83879 0.873735,-1.11139 0.382446,-0.26562 0.853763,-0.40142 1.426933,-0.40142 0.554197,0 1.077439,0.16376 1.568728,0.48729 0.491288,0.31954 0.873734,0.79585 1.142345,1.41196 0.26961,0.60412 0.402417,1.29912 0.402417,2.067 0,1.28015 -0.269609,2.25474 -0.799841,2.92976 -0.526238,0.67103 -1.315095,1.09941 -2.359583,1.27915"
         style="fill:#7b7979;fill-opacity:1;fill-rule:nonzero;stroke:none"
         id="path878" />
      <path
         inkscape:connector-curvature="0"
         d="m 74.737506,339.16434 v -5.53099 c -0.822808,0.0748 -1.438916,0.28559 -1.848323,0.63209 -0.640073,0.53023 -0.955616,1.22921 -0.955616,2.08298 0,0.76888 0.249639,1.42394 0.7599,1.94219 0.511259,0.52324 1.19427,0.81581 2.044039,0.87373 z m 2.699091,-5.51901 0.214689,-1.71651 c 1.010536,0.28159 1.798395,0.78486 2.352593,1.5178 0.557192,0.73693 0.83479,1.67757 0.83479,2.81992 0,1.4469 -0.445355,2.59025 -1.330073,3.43702 -0.885717,0.84577 -2.129915,1.27116 -3.729598,1.27116 -1.653605,0 -2.936747,-0.43337 -3.853419,-1.28314 -0.912678,-0.85876 -1.373011,-1.96216 -1.373011,-3.33118 0,-1.31809 0.44835,-2.39154 1.342056,-3.22633 0.892707,-0.83479 2.152882,-1.25518 3.775531,-1.25518 0.09786,0 0.245645,0.003 0.444357,0.0109 v 7.35634 c 1.080435,-0.0659 1.907237,-0.37446 2.484401,-0.91967 0.574169,-0.55419 0.862751,-1.2412 0.862751,-2.07599 0,-0.60812 -0.163763,-1.13436 -0.484299,-1.56773 -0.319537,-0.43637 -0.834791,-0.77588 -1.540768,-1.0375"
         style="fill:#7b7979;fill-opacity:1;fill-rule:nonzero;stroke:none"
         id="path880" />
      <path
         inkscape:connector-curvature="0"
         d="m 80.619986,329.8698 h -9.848735 v -1.5178 h 1.501825 c -0.698988,-0.38145 -1.163315,-0.72894 -1.384994,-1.05248 -0.222678,-0.32752 -0.335514,-0.68301 -0.335514,-1.07344 0,-0.55719 0.179739,-1.12637 0.534226,-1.70453 l 1.544762,0.59314 c -0.23466,0.40541 -0.35149,0.81182 -0.35149,1.21324 0,0.36248 0.10984,0.68601 0.331519,0.97559 0.218684,0.28059 0.523243,0.49129 0.912678,0.61611 0.593141,0.17874 1.241203,0.2726 1.94718,0.2726 h 5.148543 v 1.67757"
         style="fill:#7b7979;fill-opacity:1;fill-rule:nonzero;stroke:none"
         id="path882" />
      <path
         inkscape:connector-curvature="0"
         d="m 80.619986,320.44545 -9.848735,3.70963 v -1.78641 l 5.897458,-2.10196 c 0.639074,-0.22667 1.303113,-0.44136 1.985125,-0.63208 -0.522244,-0.15178 -1.14634,-0.35549 -1.872288,-0.6241 l -6.010295,-2.18484 v -1.71152 l 9.848735,3.72061 v 1.61067"
         style="fill:#7b7979;fill-opacity:1;fill-rule:nonzero;stroke:none"
         id="path884" />
      <path
         inkscape:connector-curvature="0"
         d="m 80.619986,313.60436 h -9.848735 v -1.68156 h 9.848735 z m -11.714033,0 h -1.887267 v -1.68156 h 1.887267 v 1.68156"
         style="fill:#7b7979;fill-opacity:1;fill-rule:nonzero;stroke:none"
         id="path886" />
      <path
         inkscape:connector-curvature="0"
         d="m 77.004223,303.39215 0.214689,-1.64961 c 1.134357,0.18274 2.020074,0.63608 2.660147,1.37301 0.639075,0.73693 0.95961,1.64162 0.95961,2.71906 0,1.34106 -0.44136,2.4215 -1.319089,3.24131 -0.881723,0.81881 -2.144893,1.22423 -3.787514,1.22423 -1.060464,0 -1.993113,-0.17176 -2.788961,-0.52624 -0.798843,-0.3475 -1.391984,-0.88572 -1.794401,-1.60767 -0.397424,-0.71297 -0.596136,-1.50083 -0.596136,-2.34361 0,-1.06546 0.276599,-1.93919 0.822808,-2.61321 0.550203,-0.67902 1.326079,-1.11239 2.336616,-1.29912 l 0.214689,1.61865 c -0.659046,0.14779 -1.158323,0.42539 -1.497831,0.80783 -0.327526,0.39343 -0.495283,0.86575 -0.495283,1.41595 0,0.83779 0.299567,1.50882 0.900696,2.03905 0.601129,0.51925 1.548757,0.78486 2.850871,0.78486 1.323083,0 2.282693,-0.25363 2.87883,-0.75291 0.597135,-0.50726 0.8977,-1.1703 0.8977,-1.97414 0,-0.65105 -0.202707,-1.19327 -0.605124,-1.63463 -0.397424,-0.42838 -1.017526,-0.71696 -1.852317,-0.82281"
         style="fill:#7b7979;fill-opacity:1;fill-rule:nonzero;stroke:none"
         id="path888" />
      <path
         inkscape:connector-curvature="0"
         d="m 74.737506,299.04744 v -5.53498 c -0.822808,0.0699 -1.438916,0.28858 -1.848323,0.62809 -0.640073,0.53822 -0.955616,1.23222 -0.955616,2.08598 0,0.76889 0.249639,1.42394 0.7599,1.94319 0.511259,0.52224 1.19427,0.81881 2.044039,0.87772 z m 2.699091,-5.52 0.214689,-1.71552 c 1.010536,0.27261 1.798395,0.77588 2.352593,1.51281 0.557192,0.73694 0.83479,1.68157 0.83479,2.82391 0,1.44791 -0.445355,2.59025 -1.330073,3.43303 -0.885717,0.84977 -2.129915,1.27116 -3.729598,1.27116 -1.653605,0 -2.936747,-0.42838 -3.853419,-1.28714 -0.912678,-0.84977 -1.373011,-1.95816 -1.373011,-3.32318 0,-1.32209 0.44835,-2.39453 1.342056,-3.22933 0.892707,-0.83479 2.152882,-1.25218 3.775531,-1.25218 0.09786,0 0.245645,0.004 0.444357,0.008 v 7.35634 c 1.080435,-0.0629 1.907237,-0.36647 2.484401,-0.92067 0.574169,-0.55419 0.862751,-1.24419 0.862751,-2.067 0,-0.61711 -0.163763,-1.14335 -0.484299,-1.57672 -0.319537,-0.43637 -0.834791,-0.77587 -1.540768,-1.0335"
         style="fill:#7b7979;fill-opacity:1;fill-rule:nonzero;stroke:none"
         id="path890" />
      <path
         inkscape:connector-curvature="0"
         d="m 80.619986,287.84866 h -9.848735 v -1.50981 h 1.501825 c -0.698988,-0.38244 -1.163315,-0.73693 -1.384994,-1.06046 -0.222678,-0.32054 -0.335514,-0.67902 -0.335514,-1.06945 0,-0.5572 0.179739,-1.13137 0.534226,-1.70454 l 1.544762,0.59714 c -0.23466,0.40142 -0.35149,0.80384 -0.35149,1.20525 0,0.36248 0.10984,0.69 0.331519,0.97559 0.218684,0.28858 0.523243,0.49129 0.912678,0.6201 0.593141,0.18274 1.241203,0.27261 1.94718,0.27261 h 5.148543 v 1.67357"
         style="fill:#393536;fill-opacity:1;fill-rule:nonzero;stroke:none"
         id="path892" />
      <path
         inkscape:connector-curvature="0"
         d="m 75.689128,280.41443 c 1.260175,0 2.203808,-0.28159 2.831898,-0.8278 0.624096,-0.5532 0.940638,-1.24819 0.940638,-2.08298 0,-0.8268 -0.316542,-1.51681 -0.944632,-2.06701 -0.631086,-0.5502 -1.590696,-0.8268 -2.881826,-0.8268 -1.213243,0 -2.137903,0.2766 -2.765994,0.8308 -0.624096,0.55419 -0.935645,1.2402 -0.935645,2.06301 0,0.83479 0.311549,1.52978 0.931651,2.08298 0.624096,0.54621 1.568728,0.8278 2.82391,0.8278 z m 0.008,1.72351 c -1.825356,0 -3.174402,-0.50727 -4.049135,-1.5248 -0.732938,-0.84677 -1.095413,-1.88427 -1.095413,-3.10949 0,-1.35704 0.444356,-2.46443 1.330073,-3.33018 0.885717,-0.86275 2.109944,-1.29113 3.670684,-1.29113 1.267164,0 2.265718,0.18673 2.991667,0.56918 0.72495,0.38644 1.287135,0.93564 1.688554,1.66558 0.401418,0.72895 0.605123,1.5248 0.605123,2.38655 0,1.381 -0.445355,2.50038 -1.323083,3.35514 -0.888713,0.84977 -2.156876,1.27915 -3.81847,1.27915"
         style="fill:#393536;fill-opacity:1;fill-rule:nonzero;stroke:none"
         id="path894" />
      <path
         inkscape:connector-curvature="0"
         d="m 75.619229,269.46529 c 1.182288,0 2.032057,-0.15977 2.559293,-0.4803 0.853764,-0.53024 1.283142,-1.24021 1.283142,-2.1409 0,-0.73394 -0.316542,-1.36203 -0.947628,-1.89626 -0.636078,-0.53422 -1.576716,-0.79984 -2.828902,-0.79984 -1.283142,0 -2.226775,0.25763 -2.838889,0.76489 -0.609117,0.51526 -0.912678,1.13536 -0.912678,1.86031 0,0.72994 0.315543,1.36203 0.943634,1.89625 0.636078,0.53024 1.548756,0.79585 2.742028,0.79585 z m 5.000757,-0.0509 v 1.56374 h -13.6013 v -1.67258 h 4.863955 c -0.885717,-0.70697 -1.330073,-1.60767 -1.330073,-2.70408 0,-0.60812 0.124819,-1.18129 0.366469,-1.72351 0.24165,-0.5462 0.585152,-0.98657 1.029509,-1.33406 0.44136,-0.35149 0.975587,-0.62809 1.595689,-0.82681 0.62809,-0.19871 1.291129,-0.29257 2.001101,-0.29257 1.688555,0 2.995661,0.41739 3.912334,1.24819 0.920666,0.83479 1.380999,1.83734 1.380999,3.00365 0,1.16631 -0.488292,2.07499 -1.458887,2.73803 h 1.240204"
         style="fill:#393536;fill-opacity:1;fill-rule:nonzero;stroke:none"
         id="path896" />
      <path
         inkscape:connector-curvature="0"
         d="m 75.689128,259.27705 c 1.260175,0 2.203808,-0.2776 2.831898,-0.82381 0.624096,-0.5532 0.940638,-1.24819 0.940638,-2.08298 0,-0.82681 -0.316542,-1.5208 -0.944632,-2.06701 -0.631086,-0.5502 -1.590696,-0.8268 -2.881826,-0.8268 -1.213243,0 -2.137903,0.2766 -2.765994,0.8268 -0.624096,0.5542 -0.935645,1.2402 -0.935645,2.06701 0,0.83479 0.311549,1.52978 0.931651,2.08298 0.624096,0.54621 1.568728,0.82381 2.82391,0.82381 z m 0.008,1.72749 c -1.825356,0 -3.174402,-0.51125 -4.049135,-1.52479 -0.732938,-0.85076 -1.095413,-1.88427 -1.095413,-3.10949 0,-1.35704 0.444356,-2.46843 1.330073,-3.33417 0.885717,-0.85876 2.109944,-1.29113 3.670684,-1.29113 1.267164,0 2.265718,0.19072 2.991667,0.56917 0.72495,0.39044 1.287135,0.93964 1.688554,1.67358 0.401418,0.72495 0.605123,1.5208 0.605123,2.38255 0,1.381 -0.445355,2.50038 -1.323083,3.35913 -0.888713,0.84578 -2.156876,1.27515 -3.81847,1.27515"
         style="fill:#393536;fill-opacity:1;fill-rule:nonzero;stroke:none"
         id="path898" />
      <path
         inkscape:connector-curvature="0"
         d="m 79.134138,246.14307 1.469871,-0.21868 c 0.105847,0.47631 0.152779,0.8977 0.152779,1.26816 0,0.60812 -0.09786,1.07644 -0.288582,1.41195 -0.191722,0.33552 -0.445355,0.56918 -0.756904,0.70998 -0.312547,0.1328 -0.971592,0.2027 -1.970146,0.2027 h -5.67578 v 1.24021 h -1.294125 v -1.24021 h -2.442463 l -1.002547,-1.67357 h 3.44501 v -1.70054 h 1.294125 v 1.70054 h 5.757661 c 0.480305,0 0.783865,-0.0269 0.920667,-0.0899 0.140796,-0.0579 0.245644,-0.15178 0.327525,-0.28858 0.07789,-0.13581 0.120825,-0.32753 0.120825,-0.58116 0,-0.18673 -0.01901,-0.43637 -0.05792,-0.74093"
         style="fill:#393536;fill-opacity:1;fill-rule:nonzero;stroke:none"
         id="path900" />
      <path
         inkscape:connector-curvature="0"
         d="m 80.619986,244.50844 h -9.848735 v -1.67258 h 9.848735 z m -11.714033,0 h -1.887267 v -1.67258 h 1.887267 v 1.67258"
         style="fill:#393536;fill-opacity:1;fill-rule:nonzero;stroke:none"
         id="path902" />
      <path
         inkscape:connector-curvature="0"
         d="m 80.619986,240.29254 h -13.6013 v -1.67357 h 7.742786 l -3.990221,-3.94729 v -2.16087 l 3.658701,3.75956 6.190034,-4.13801 v 2.05902 l -5.031712,3.26927 1.127367,1.15832 h 3.904345 v 1.67357"
         style="fill:#393536;fill-opacity:1;fill-rule:nonzero;stroke:none"
         id="path904" />
      <path
         inkscape:connector-curvature="0"
         d="m 161.01155,346.43581 c 0,3.3851 -2.76999,6.15908 -6.15908,6.15908 H 92.39593 c -3.39009,0 -6.163073,-2.77398 -6.163073,-6.15908 V 236.35624 c 0,-3.38909 2.772983,-6.16207 6.163073,-6.16207 h 62.45654 c 3.38909,0 6.15908,2.77298 6.15908,6.16207 v 110.07957"
         style="fill:#393536;fill-opacity:1;fill-rule:nonzero;stroke:none"
         id="path906" />
      <path
         inkscape:connector-curvature="0"
         d="m 112.89724,283.64775 c 0,0 -2.57028,-0.72994 -3.77154,1.64162 0,0 -4.24385,8.39784 -7.51711,23.12351 -3.264272,14.72867 -3.689656,26.30889 -3.689656,26.30889 0,0 -0.09386,2.65616 2.500376,2.02507 0,0 10.76541,-2.62919 29.69899,-11.29264 18.93757,-8.67843 29.68001,-16.05076 29.68001,-16.05076 0,0 2.20381,-1.50581 0.0269,-3.05058 0,0 -9.94659,-7.06776 -23.87941,-13.49645 -14.94731,-6.91099 -23.04858,-9.20866 -23.04858,-9.20866"
         style="fill:#fbc11e;fill-opacity:1;fill-rule:nonzero;stroke:none"
         id="path908" />
      <path
         inkscape:connector-curvature="0"
         d="m 116.75565,352.59584 c 0.75867,-1.38953 1.31613,-3.02097 1.62964,-4.78702 1.06546,-6.03426 -1.33407,-11.50334 -5.36323,-12.20932 -4.02917,-0.70597 -8.16753,3.61188 -9.23662,9.65801 -0.47508,2.68679 -0.25803,5.24908 0.47838,7.34081"
         style="fill:#ffffff;fill-opacity:1;fill-rule:nonzero;stroke:none"
         id="path910"
         sodipodi:nodetypes="ccsss" />
      <path
         inkscape:connector-curvature="0"
         d="m 153.80299,336.64099 c 2.65827,0.46841 5.36872,-1.25775 7.21038,-4.21649 l 0.003,-15.6092 c -0.9001,-1.08328 -2.03308,-1.80831 -3.33628,-2.03664 -4.0224,-0.70474 -8.16418,3.60777 -9.23263,9.65402 -1.06945,6.03426 1.33007,11.50234 5.35524,12.20831"
         style="fill:#ffffff;fill-opacity:1;fill-rule:nonzero;stroke:none"
         id="path912"
         sodipodi:nodetypes="cccssc" />
      <path
         inkscape:connector-curvature="0"
         d="m 120.18768,307.00392 c 3.22932,-1.16232 4.8989,-4.70419 3.73659,-7.92153 -1.17031,-3.21434 -4.73115,-4.88392 -7.95348,-3.72161 -3.23731,1.15833 -4.91089,4.71218 -3.74458,7.92652 1.16631,3.21734 4.73215,4.87594 7.96147,3.71662"
         style="fill:#ffffff;fill-opacity:1;fill-rule:nonzero;stroke:none"
         id="path914" />
      <g
         id="g916"
         transform="matrix(0.99855372,0,0,-0.99855372,49.368259,-406.48568)">
        <path
           inkscape:connector-curvature="0"
           d="m 68.418,-708.492 -23.98,9.316"
           style="fill:none;stroke:#fbc11e;stroke-width:3.16328168;stroke-linecap:round;stroke-linejoin:miter;stroke-miterlimit:4;stroke-dasharray:none;stroke-opacity:1"
           id="path918" />
      </g>
      <g
         id="g920"
         transform="matrix(0.99855372,0,0,-0.99855372,49.368259,-406.48568)">
        <path
           inkscape:connector-curvature="0"
           d="m 41.879,-697.047 21.68,24.652"
           style="fill:none;stroke:#fbc11e;stroke-width:3.16328168;stroke-linecap:butt;stroke-linejoin:miter;stroke-miterlimit:4;stroke-dasharray:none;stroke-opacity:1"
           id="path922" />
      </g>
      <g
         id="g924"
         transform="matrix(0.99855372,0,0,-0.99855372,49.368259,-406.48568)">
        <path
           inkscape:connector-curvature="0"
           d="m 70.891,-657.262 c 0,0 -8.934,-3.843 -3.813,-12.008 0,0 7.844,-1.316 10.317,7"
           style="fill:none;stroke:#fbc11e;stroke-width:2.10891008;stroke-linecap:round;stroke-linejoin:miter;stroke-miterlimit:4;stroke-dasharray:none;stroke-opacity:1"
           id="path926" />
      </g>
      <path
         inkscape:connector-curvature="0"
         d="m 92.142297,295.88802 c 3.069558,-0.3475 5.273366,-3.1095 4.918879,-6.17506 -0.355485,-3.05457 -3.128469,-5.2424 -6.198026,-4.89091 -3.066558,0.3425 -5.274361,3.1045 -4.918875,6.16607 0.350492,3.05857 3.128468,5.25439 6.198022,4.8999"
         style="fill:#ffffff;fill-opacity:1;fill-rule:nonzero;stroke:none"
         id="path928" />
      <path
         inkscape:connector-curvature="0"
         d="m 114.57481,269.0479 c 3.07754,-0.3515 5.27336,-3.11649 4.92587,-6.17506 -0.35449,-3.05358 -3.12448,-5.2504 -6.19803,-4.89891 -3.06955,0.3505 -5.27336,3.1125 -4.91787,6.17107 0.35049,3.05757 3.12048,5.24939 6.19003,4.9029"
         style="fill:#ffffff;fill-opacity:1;fill-rule:nonzero;stroke:none"
         id="path930" />
    </g>
    <text
       xml:space="preserve"
       style="font-style:normal;font-weight:normal;font-size:3.17499995px;line-height:0%;font-family:'Bitstream Vera Sans';fill:#333333;fill-opacity:1;stroke:none;stroke-width:0.26458332"
       x="68.517914"
       y="140.15477"
       id="text5116"><tspan
         sodipodi:role="line"
         id="tspan5118"
         x="68.517914"
         y="140.15477"
         style="font-weight:bold;font-size:6.51199007px;line-height:1.25;-inkscape-font-specification:'Andale Mono Bold';fill:#333333;fill-opacity:1;stroke-width:0.26458332">Service Robotics <tspan
   style="fill:#929292;fill-opacity:1;stroke-width:0.26458332"
   id="tspan5917">Ulm</tspan></tspan></text>
    <text
       xml:space="preserve"
       style="font-style:normal;font-weight:normal;font-size:3.17499995px;line-height:0%;font-family:'Bitstream Vera Sans';fill:#333333;fill-opacity:1;stroke:none;stroke-width:0.26458332"
       x="68.716431"
       y="146.19753"
       id="text5116-3"><tspan
         sodipodi:role="line"
         id="tspan5118-1"
         x="68.716431"
         y="146.19753"
         style="font-weight:normal;font-size:4.4771142px;line-height:1.25;-inkscape-font-specification:'Andale Mono';fill:#333333;fill-opacity:1;stroke-width:0.26458332">autonomous mobile service robots</tspan></text>
  </g>
</svg>
