<?xml version="1.0" encoding="iso-8859-1"?>
<!-- Generator: Adobe Illustrator 19.0.0, SVG Export Plug-In . SVG Version: 6.00 Build 0)  -->
<svg version="1.1" id="Layer_1" xmlns="http://www.w3.org/2000/svg" xmlns:xlink="http://www.w3.org/1999/xlink" x="0px" y="0px"
	 viewBox="0 0 512 512" style="enable-background:new 0 0 512 512;" xml:space="preserve">
<g>
	<path style="fill:#FDCC00;" d="M281.6,76.8V42.667c0-18.85,15.283-34.133,34.133-34.133H42.667
		c-18.85,0-34.133,15.283-34.133,34.133v307.2c0,18.85,15.283,34.133,34.133,34.133H281.6V76.8z"/>
	<g>
		<polygon style="fill:#FFE100;" points="281.6,384 230.4,384 213.333,469.333 281.6,469.333 281.6,435.2 		"/>
		<path style="fill:#FFE100;" d="M281.6,469.333H170.667c-4.719,0-8.533,3.823-8.533,8.533v17.067c0,4.71,3.814,8.533,8.533,8.533
			h145.067C296.883,503.467,281.6,488.183,281.6,469.333"/>
		<path style="fill:#FFE100;" d="M281.6,76.8V42.667H59.733c-9.421,0-17.067,7.646-17.067,17.067v256H281.6V76.8z"/>
		<path style="fill:#FFE100;" d="M281.6,315.733H8.533v34.133c0,18.85,15.283,34.133,34.133,34.133H281.6V315.733z"/>
		<polygon style="fill:#FFE100;" points="281.6,435.199 503.467,435.199 503.467,76.799 281.6,76.799 		"/>
	</g>
	<path style="fill:#FFFFFF;" d="M25.6,349.867v-307.2c0-18.85,15.283-34.133,34.133-34.133H42.667
		c-18.85,0-34.133,15.283-34.133,34.133v307.2c0,18.85,15.283,34.133,34.133,34.133h17.067C40.883,384,25.6,368.717,25.6,349.867"/>
	<g>
		<path style="fill:#FDCC00;" d="M469.333,8.533h-153.6c-18.85,0-34.133,15.283-34.133,34.133V76.8h221.867V42.667
			C503.467,23.817,488.184,8.533,469.333,8.533"/>
		<path style="fill:#FDCC00;" d="M469.333,503.467h-153.6c-18.85,0-34.133-15.283-34.133-34.133V435.2h221.867v34.133
			C503.467,488.183,488.184,503.467,469.333,503.467"/>
	</g>
	<g>
		<polygon style="fill:#FFA800;" points="477.867,435.199 503.467,435.199 503.467,76.799 477.867,76.799 		"/>
		<path style="fill:#FFA800;" d="M469.333,8.533h-25.6c18.85,0,34.133,15.283,34.133,34.133V76.8h25.6V42.667
			C503.467,23.817,488.184,8.533,469.333,8.533"/>
		<path style="fill:#FFA800;" d="M477.867,435.2v34.133c0,18.85-15.283,34.133-34.133,34.133h25.6
			c18.85,0,34.133-15.283,34.133-34.133V435.2H477.867z"/>
	</g>
	<g>
		<polygon style="fill:#E4667F;" points="315.733,145.066 469.333,145.066 469.333,110.932 315.733,110.932 		"/>
		<polygon style="fill:#E4667F;" points="315.733,213.332 469.333,213.332 469.333,179.199 315.733,179.199 		"/>
		<polygon style="fill:#E4667F;" points="315.733,358.399 349.867,358.399 349.867,290.133 315.733,290.133 		"/>
	</g>
	<g>
		<path d="M324.267,136.532H460.8v-17.067H324.267V136.532z M469.333,153.599h-153.6c-4.719,0-8.533-3.823-8.533-8.533v-34.133
			c0-4.71,3.814-8.533,8.533-8.533h153.6c4.719,0,8.533,3.823,8.533,8.533v34.133C477.867,149.776,474.052,153.599,469.333,153.599
			L469.333,153.599z"/>
		<path d="M324.267,204.799H460.8v-17.067H324.267V204.799z M469.333,221.866h-153.6c-4.719,0-8.533-3.823-8.533-8.533v-34.133
			c0-4.71,3.814-8.533,8.533-8.533h153.6c4.719,0,8.533,3.823,8.533,8.533v34.133C477.867,218.043,474.052,221.866,469.333,221.866
			L469.333,221.866z"/>
		<path d="M324.267,349.866h17.067v-51.2h-17.067V349.866z M349.867,366.932h-34.133c-4.719,0-8.533-3.823-8.533-8.533v-68.267
			c0-4.71,3.814-8.533,8.533-8.533h34.133c4.719,0,8.533,3.823,8.533,8.533v68.267C358.4,363.11,354.586,366.932,349.867,366.932
			L349.867,366.932z"/>
		<path d="M85.333,128c-2.185,0-4.369-0.836-6.033-2.5c-3.337-3.337-3.337-8.73,0-12.066L113.434,79.3
			c3.337-3.337,8.73-3.337,12.066,0c3.337,3.337,3.337,8.73,0,12.066L91.366,125.5C89.702,127.164,87.518,128,85.333,128"/>
		<path d="M85.333,170.667c-2.185,0-4.369-0.836-6.033-2.5c-3.337-3.337-3.337-8.73,0-12.066l17.067-17.067
			c3.337-3.337,8.73-3.337,12.066,0c3.337,3.337,3.337,8.73,0,12.066l-17.067,17.067C89.702,169.83,87.518,170.667,85.333,170.667"
			/>
		<path d="M119.467,136.533c-2.219,0-4.446-0.939-6.059-2.475c-1.545-1.621-2.475-3.84-2.475-6.059c0-2.219,0.93-4.437,2.475-6.059
			c3.157-3.157,8.875-3.157,12.117,0c1.536,1.621,2.475,3.84,2.475,6.059c0,2.219-0.939,4.437-2.475,6.059
			c-0.427,0.341-0.862,0.768-1.365,1.024c-0.427,0.341-0.947,0.597-1.451,0.768c-0.521,0.256-1.024,0.427-1.63,0.512
			C120.576,136.448,119.979,136.533,119.467,136.533"/>
		<path d="M136.533,119.467c-2.185,0-4.369-0.836-6.033-2.5c-3.337-3.337-3.337-8.73,0-12.066l25.6-25.6
			c3.337-3.337,8.73-3.337,12.066,0c3.337,3.337,3.337,8.73,0,12.066l-25.6,25.6C140.902,118.63,138.718,119.467,136.533,119.467"/>
		<path d="M85.333,213.333c-2.185,0-4.369-0.836-6.033-2.5c-3.337-3.337-3.337-8.73,0-12.066l76.8-76.8
			c3.337-3.337,8.73-3.337,12.066,0c3.337,3.337,3.337,8.73,0,12.066l-76.8,76.8C89.702,212.497,87.518,213.333,85.333,213.333"/>
		<path d="M179.2,119.467c-2.219,0-4.446-0.939-6.059-2.475c-0.768-0.853-1.365-1.792-1.792-2.816
			c-0.512-1.024-0.683-2.133-0.683-3.243c0-2.219,0.93-4.437,2.475-6.059c2.381-2.389,6.144-3.157,9.301-1.792
			c1.024,0.427,1.954,1.024,2.816,1.792c1.536,1.621,2.475,3.84,2.475,6.059c0,1.109-0.256,2.219-0.683,3.243
			c-0.427,1.024-1.024,1.963-1.792,2.816c-0.862,0.768-1.792,1.365-2.816,1.792C181.419,119.296,180.309,119.467,179.2,119.467"/>
		<path d="M196.267,102.4c-2.185,0-4.369-0.836-6.033-2.5c-3.337-3.337-3.337-8.73,0-12.066l8.533-8.533
			c3.337-3.337,8.73-3.337,12.066,0c3.337,3.337,3.337,8.73,0,12.066L202.3,99.9C200.636,101.564,198.451,102.4,196.267,102.4"/>
		<path d="M281.6,358.4h-51.2c-4.719,0-8.533-3.823-8.533-8.533c0-4.71,3.814-8.533,8.533-8.533h51.2
			c4.719,0,8.533,3.823,8.533,8.533C290.133,354.577,286.319,358.4,281.6,358.4"/>
		<path d="M426.667,349.867c0-4.71-3.814-8.533-8.533-8.533c-4.719,0-8.533,3.823-8.533,8.533c0,4.71,3.814,8.533,8.533,8.533
			C422.852,358.4,426.667,354.577,426.667,349.867"/>
		<path d="M469.333,349.867c0-4.71-3.814-8.533-8.533-8.533c-4.719,0-8.533,3.823-8.533,8.533c0,4.71,3.814,8.533,8.533,8.533
			C465.519,358.4,469.333,354.577,469.333,349.867"/>
		<path d="M42.667,17.067c-14.114,0-25.6,11.486-25.6,25.6v307.2c0,14.114,11.486,25.6,25.6,25.6h230.4v-332.8
			c0-9.6,3.183-18.466,8.55-25.6H42.667z M281.6,392.533H42.667C19.14,392.533,0,373.393,0,349.867v-307.2C0,19.14,19.14,0,42.667,0
			h273.067c4.719,0,8.533,3.823,8.533,8.533s-3.814,8.533-8.533,8.533c-14.114,0-25.6,11.486-25.6,25.6V384
			C290.133,388.71,286.319,392.533,281.6,392.533L281.6,392.533z"/>
		<path d="M51.2,307.2h221.867v-256H59.733c-4.71,0-8.533,3.831-8.533,8.533V307.2z M281.6,324.267H42.667
			c-4.719,0-8.533-3.823-8.533-8.533v-256c0-14.114,11.486-25.6,25.6-25.6H281.6c4.719,0,8.533,3.823,8.533,8.533v273.067
			C290.133,320.444,286.319,324.267,281.6,324.267L281.6,324.267z"/>
		<path d="M17.067,324.267v25.6c0,14.114,11.486,25.6,25.6,25.6h230.4v-51.2H17.067z M281.6,392.533H42.667
			C19.14,392.533,0,373.393,0,349.867v-34.133c0-4.71,3.814-8.533,8.533-8.533H281.6c4.719,0,8.533,3.823,8.533,8.533V384
			C290.133,388.71,286.319,392.533,281.6,392.533L281.6,392.533z"/>
		<path d="M223.741,460.8h49.323v-68.267h-35.669L223.741,460.8z M281.597,477.867h-68.267c-2.56,0-4.975-1.143-6.596-3.123
			s-2.27-4.574-1.766-7.083l17.067-85.333c0.802-3.994,4.301-6.861,8.363-6.861h51.2c4.719,0,8.533,3.823,8.533,8.533v85.333
			C290.131,474.044,286.316,477.867,281.597,477.867L281.597,477.867z"/>
		<path d="M290.133,68.267h204.8v-25.6c0-14.114-11.486-25.6-25.6-25.6h-153.6c-14.114,0-25.6,11.486-25.6,25.6V68.267z
			 M503.467,85.333H281.6c-4.719,0-8.533-3.823-8.533-8.533V42.667C273.067,19.14,292.207,0,315.733,0h153.6
			C492.86,0,512,19.14,512,42.667V76.8C512,81.51,508.186,85.333,503.467,85.333L503.467,85.333z"/>
		<path d="M290.133,443.733v25.6c0,14.114,11.486,25.6,25.6,25.6h153.6c14.114,0,25.6-11.486,25.6-25.6v-25.6H290.133z M469.333,512
			h-153.6c-23.526,0-42.667-19.14-42.667-42.667V435.2c0-4.71,3.814-8.533,8.533-8.533h221.867c4.719,0,8.533,3.823,8.533,8.533
			v34.133C512,492.86,492.86,512,469.333,512L469.333,512z"/>
		<path d="M290.133,426.666h204.8V85.332h-204.8V426.666z M503.467,443.733H281.6c-4.719,0-8.533-3.823-8.533-8.533v-358.4
			c0-4.71,3.814-8.533,8.533-8.533h221.867c4.719,0,8.533,3.823,8.533,8.533v358.4C512,439.91,508.186,443.733,503.467,443.733
			L503.467,443.733z"/>
		<path d="M170.667,477.867v17.067h110.95c-3.738-4.966-6.409-10.769-7.689-17.067H170.667z M315.733,512H170.667
			c-9.412,0-17.067-7.654-17.067-17.067v-17.067c0-9.412,7.654-17.067,17.067-17.067H281.6c4.719,0,8.533,3.823,8.533,8.533
			c0,14.114,11.486,25.6,25.6,25.6c4.719,0,8.533,3.823,8.533,8.533C324.267,508.177,320.452,512,315.733,512L315.733,512z"/>
	</g>
</g>
<g>
</g>
<g>
</g>
<g>
</g>
<g>
</g>
<g>
</g>
<g>
</g>
<g>
</g>
<g>
</g>
<g>
</g>
<g>
</g>
<g>
</g>
<g>
</g>
<g>
</g>
<g>
</g>
<g>
</g>
</svg>
