<?xml version="1.0" encoding="iso-8859-1"?>
<!-- Generator: Adobe Illustrator 19.0.0, SVG Export Plug-In . SVG Version: 6.00 Build 0)  -->
<svg version="1.1" id="Layer_1" xmlns="http://www.w3.org/2000/svg" xmlns:xlink="http://www.w3.org/1999/xlink" x="0px" y="0px"
	 viewBox="0 0 512 512" style="enable-background:new 0 0 512 512;" xml:space="preserve">
<g>
	<path style="fill:#ECF0F1;" d="M282.483,70.621V35.31c0-19.5,15.81-35.31,35.31-35.31H35.31C15.81,0,0,15.81,0,35.31v317.793
		c0,19.5,15.81,35.31,35.31,35.31h247.172V70.621z"/>
	<path style="fill:#BDC3C7;" d="M282.483,317.793H0v35.31c0,19.5,15.81,35.31,35.31,35.31h247.172V317.793z"/>
	<path style="fill:#546B7F;" d="M282.483,70.621V35.31H52.966c-9.746,0-17.655,7.91-17.655,17.655v264.828h247.172V70.621z"/>
	<g>
		<path style="fill:#788FA0;" d="M79.448,123.586c-2.26,0-4.52-0.865-6.241-2.586c-3.452-3.452-3.452-9.031,0-12.482l35.31-35.31
			c3.452-3.452,9.031-3.452,12.482,0c3.452,3.452,3.452,9.031,0,12.482L85.689,121C83.968,122.721,81.708,123.586,79.448,123.586"/>
		<path style="fill:#788FA0;" d="M79.448,167.724c-2.26,0-4.52-0.865-6.241-2.586c-3.452-3.452-3.452-9.031,0-12.482L90.862,135
			c3.452-3.452,9.031-3.452,12.482,0s3.452,9.031,0,12.482l-17.655,17.655C83.968,166.859,81.708,167.724,79.448,167.724"/>
		<path style="fill:#788FA0;" d="M114.759,132.414c-2.295,0-4.599-0.971-6.268-2.56c-1.598-1.677-2.56-3.972-2.56-6.268
			s0.962-4.59,2.56-6.268c3.266-3.266,9.181-3.266,12.535,0c1.589,1.677,2.56,3.972,2.56,6.268s-0.971,4.59-2.56,6.268
			c-0.441,0.353-0.892,0.794-1.412,1.059c-0.441,0.353-0.98,0.618-1.501,0.794c-0.538,0.265-1.059,0.441-1.686,0.53
			C115.906,132.326,115.288,132.414,114.759,132.414"/>
		<path style="fill:#788FA0;" d="M132.414,114.759c-2.26,0-4.52-0.865-6.241-2.586c-3.452-3.452-3.452-9.031,0-12.482l26.483-26.483
			c3.452-3.452,9.031-3.452,12.482,0c3.452,3.452,3.452,9.031,0,12.482l-26.483,26.483
			C136.934,113.894,134.674,114.759,132.414,114.759"/>
		<path style="fill:#788FA0;" d="M79.448,211.862c-2.26,0-4.52-0.865-6.241-2.586c-3.452-3.452-3.452-9.031,0-12.482l79.448-79.448
			c3.452-3.452,9.031-3.452,12.482,0c3.452,3.452,3.452,9.031,0,12.482l-79.448,79.448
			C83.968,210.997,81.708,211.862,79.448,211.862"/>
		<path style="fill:#788FA0;" d="M176.552,114.759c-2.295,0-4.599-0.971-6.268-2.56c-0.794-0.883-1.412-1.854-1.854-2.913
			c-0.53-1.059-0.706-2.207-0.706-3.354c0-2.295,0.962-4.59,2.56-6.268c2.463-2.472,6.356-3.266,9.622-1.854
			c1.059,0.441,2.022,1.059,2.913,1.854c1.589,1.677,2.56,3.972,2.56,6.268c0,1.148-0.265,2.295-0.706,3.354
			c-0.441,1.059-1.059,2.03-1.854,2.913c-0.892,0.794-1.854,1.412-2.913,1.854C178.847,114.582,177.699,114.759,176.552,114.759"/>
		<path style="fill:#788FA0;" d="M194.207,97.103c-2.26,0-4.52-0.865-6.241-2.586c-3.452-3.452-3.452-9.031,0-12.482l8.828-8.828
			c3.452-3.452,9.031-3.452,12.482,0c3.452,3.452,3.452,9.031,0,12.482l-8.828,8.828C198.727,96.238,196.467,97.103,194.207,97.103"
			/>
	</g>
	<path style="fill:#ECF0F1;" d="M282.483,361.931h-52.966c-4.882,0-8.828-3.955-8.828-8.828c0-4.873,3.946-8.828,8.828-8.828h52.966
		c4.882,0,8.828,3.955,8.828,8.828C291.31,357.976,287.364,361.931,282.483,361.931"/>
	<polygon style="fill:#98A0A5;" points="282.483,388.414 229.517,388.414 211.862,476.69 282.483,476.69 282.483,441.379 	"/>
	<g>
		<path style="fill:#ECF0F1;" d="M282.483,476.69H167.724c-4.882,0-8.828,3.955-8.828,8.828v17.655c0,4.873,3.946,8.828,8.828,8.828
			h150.069C298.293,512,282.483,496.19,282.483,476.69"/>
		<polygon style="fill:#ECF0F1;" points="282.483,441.379 512,441.379 512,70.621 282.483,70.621 		"/>
	</g>
	<g>
		<polygon style="fill:#BDC3C7;" points="317.793,141.241 476.69,141.241 476.69,105.931 317.793,105.931 		"/>
		<polygon style="fill:#BDC3C7;" points="317.793,211.862 476.69,211.862 476.69,176.552 317.793,176.552 		"/>
		<polygon style="fill:#BDC3C7;" points="317.793,361.931 353.103,361.931 353.103,291.31 317.793,291.31 		"/>
	</g>
	<path style="fill:#F0C419;" d="M432.552,353.103c0-4.873-3.946-8.828-8.828-8.828c-4.882,0-8.828,3.955-8.828,8.828
		c0,4.873,3.946,8.828,8.828,8.828C428.606,361.931,432.552,357.976,432.552,353.103"/>
	<path style="fill:#E64C3C;" d="M476.69,353.103c0-4.873-3.946-8.828-8.828-8.828c-4.882,0-8.828,3.955-8.828,8.828
		c0,4.873,3.946,8.828,8.828,8.828C472.744,361.931,476.69,357.976,476.69,353.103"/>
	<g>
		<path style="fill:#BDC3C7;" d="M476.69,0H317.793c-19.5,0-35.31,15.81-35.31,35.31v35.31H512V35.31C512,15.81,496.19,0,476.69,0"
			/>
		<path style="fill:#BDC3C7;" d="M476.69,512H317.793c-19.5,0-35.31-15.81-35.31-35.31v-35.31H512v35.31
			C512,496.19,496.19,512,476.69,512"/>
	</g>
</g>
<g>
</g>
<g>
</g>
<g>
</g>
<g>
</g>
<g>
</g>
<g>
</g>
<g>
</g>
<g>
</g>
<g>
</g>
<g>
</g>
<g>
</g>
<g>
</g>
<g>
</g>
<g>
</g>
<g>
</g>
</svg>
