<?xml version="1.0" encoding="iso-8859-1"?>
<!-- Generator: Adobe Illustrator 18.0.0, SVG Export Plug-In . SVG Version: 6.00 Build 0)  -->
<!DOCTYPE svg PUBLIC "-//W3C//DTD SVG 1.1//EN" "http://www.w3.org/Graphics/SVG/1.1/DTD/svg11.dtd">
<svg version="1.1" id="Capa_1" xmlns="http://www.w3.org/2000/svg" xmlns:xlink="http://www.w3.org/1999/xlink" x="0px" y="0px"
	 viewBox="0 0 57.17 57.17" style="enable-background:new 0 0 57.17 57.17;" xml:space="preserve">
<g>
	<path d="M55.232,55.479l-5.969-6.243c1.745-1.918,2.82-4.458,2.82-7.25c0-5.953-4.843-10.796-10.796-10.796
		s-10.796,4.843-10.796,10.796s4.843,10.796,10.796,10.796c2.442,0,4.689-0.824,6.5-2.196l6,6.276
		c0.196,0.205,0.459,0.309,0.723,0.309c0.249,0,0.497-0.092,0.691-0.277C55.6,56.511,55.614,55.878,55.232,55.479z M32.491,41.985
		c0-4.85,3.946-8.796,8.796-8.796s8.796,3.946,8.796,8.796s-3.946,8.796-8.796,8.796S32.491,46.835,32.491,41.985z"/>
	<path d="M26.66,41c-0.827,0-1.637-0.016-2.432-0.044c-0.486-0.018-0.955-0.049-1.429-0.077c-0.293-0.017-0.595-0.028-0.883-0.049
		c-0.63-0.045-1.242-0.104-1.847-0.167c-0.114-0.012-0.233-0.02-0.346-0.032c-0.693-0.076-1.368-0.163-2.026-0.259
		c-0.017-0.002-0.034-0.004-0.051-0.007c-3.385-0.5-6.29-1.263-8.561-2.169c-0.012-0.004-0.024-0.009-0.036-0.014
		c-0.419-0.168-0.812-0.342-1.186-0.519c-0.043-0.021-0.089-0.041-0.132-0.062c-0.336-0.162-0.647-0.328-0.945-0.497
		c-0.07-0.04-0.144-0.079-0.212-0.12c-0.259-0.152-0.495-0.307-0.721-0.463c-0.086-0.06-0.175-0.12-0.257-0.18
		c-0.191-0.141-0.362-0.283-0.526-0.426c-0.089-0.079-0.178-0.157-0.26-0.236c-0.134-0.13-0.252-0.261-0.363-0.392
		c-0.078-0.092-0.153-0.185-0.219-0.277c-0.088-0.123-0.163-0.246-0.23-0.369c-0.054-0.099-0.102-0.198-0.143-0.297
		c-0.049-0.121-0.088-0.242-0.116-0.362C3.701,33.823,3.66,33.661,3.66,33.5v-8.207c0.028,0.026,0.063,0.051,0.092,0.077
		c0.219,0.191,0.44,0.382,0.69,0.566C8.209,28.786,15.742,31,26.66,31c10.873,0,18.386-2.196,22.169-5.028
		c0.302-0.22,0.574-0.447,0.83-0.678c0,0,0,0,0,0l0,4.707c0,0.553,0.447,1,1,1s1-0.447,1-1v-8v-0.5v-12V9
		c0-0.182-0.062-0.343-0.146-0.49C50.357,4.22,41.737,0,26.66,0C11.583,0,2.964,4.22,1.807,8.51C1.722,8.657,1.66,8.818,1.66,9v0.5
		v12V22v11.5V34v12c0,0.161,0.042,0.313,0.115,0.448c1.139,4.833,10.691,7.68,19.81,8.364c0.025,0.002,0.051,0.003,0.076,0.003
		c0.519,0,0.957-0.399,0.996-0.925c0.041-0.551-0.371-1.031-0.922-1.072C10.621,51.984,4.145,48.6,3.692,45.838
		c-0.008-0.045-0.019-0.088-0.032-0.131v-8.414c0.028,0.026,0.063,0.051,0.092,0.077c0.219,0.191,0.44,0.382,0.69,0.566
		C8.209,40.786,15.742,43,26.66,43c0.553,0,1-0.447,1-1S27.213,41,26.66,41z M4.262,13.797c0.3,0.236,0.624,0.469,0.975,0.696
		c0.073,0.047,0.155,0.093,0.231,0.14c0.294,0.183,0.605,0.362,0.932,0.538c0.121,0.065,0.242,0.129,0.368,0.193
		c0.365,0.186,0.748,0.366,1.151,0.542c0.066,0.029,0.126,0.059,0.192,0.087c0.469,0.199,0.967,0.389,1.486,0.572
		c0.143,0.051,0.293,0.099,0.44,0.149c0.412,0.139,0.838,0.272,1.279,0.401c0.159,0.046,0.315,0.094,0.478,0.139
		c0.585,0.162,1.189,0.316,1.823,0.458c0.087,0.02,0.181,0.037,0.269,0.056c0.559,0.122,1.139,0.235,1.735,0.34
		c0.202,0.036,0.407,0.07,0.613,0.104c0.567,0.093,1.151,0.179,1.75,0.257c0.154,0.02,0.302,0.042,0.457,0.062
		c0.744,0.09,1.513,0.167,2.305,0.233c0.195,0.016,0.398,0.028,0.596,0.042c0.633,0.046,1.28,0.084,1.942,0.114
		c0.241,0.011,0.481,0.022,0.727,0.03c0.863,0.03,1.74,0.05,2.65,0.05s1.788-0.021,2.65-0.05c0.245-0.008,0.485-0.02,0.727-0.03
		c0.662-0.03,1.309-0.068,1.942-0.114c0.198-0.015,0.401-0.026,0.596-0.042c0.791-0.065,1.561-0.143,2.305-0.233
		c0.156-0.019,0.303-0.042,0.457-0.062c0.599-0.078,1.182-0.164,1.75-0.257c0.206-0.034,0.411-0.068,0.613-0.104
		c0.596-0.105,1.176-0.218,1.735-0.34c0.088-0.019,0.182-0.036,0.269-0.056c0.634-0.142,1.238-0.296,1.823-0.458
		c0.163-0.045,0.319-0.092,0.478-0.139c0.441-0.128,0.867-0.262,1.279-0.401c0.147-0.05,0.297-0.098,0.44-0.149
		c0.518-0.184,1.017-0.374,1.486-0.572c0.067-0.028,0.127-0.059,0.192-0.087c0.403-0.176,0.786-0.356,1.151-0.542
		c0.125-0.064,0.247-0.128,0.368-0.193c0.327-0.175,0.638-0.354,0.932-0.538c0.076-0.047,0.158-0.093,0.231-0.14
		c0.351-0.227,0.675-0.459,0.975-0.696c0.075-0.06,0.142-0.12,0.214-0.18c0.13-0.108,0.267-0.215,0.387-0.324V21.5
		c0,0.161-0.041,0.323-0.079,0.485c-0.028,0.121-0.067,0.241-0.116,0.362c-0.04,0.099-0.089,0.198-0.143,0.297
		c-0.067,0.123-0.142,0.246-0.23,0.369c-0.066,0.092-0.141,0.185-0.219,0.277c-0.111,0.131-0.229,0.262-0.363,0.392
		c-0.081,0.079-0.17,0.157-0.26,0.236c-0.164,0.143-0.335,0.285-0.526,0.426c-0.082,0.061-0.17,0.12-0.257,0.18
		c-0.226,0.156-0.462,0.311-0.721,0.463c-0.068,0.041-0.141,0.08-0.212,0.12c-0.297,0.168-0.609,0.334-0.945,0.497
		c-0.043,0.021-0.088,0.041-0.132,0.062c-0.375,0.177-0.767,0.351-1.186,0.519c-0.012,0.005-0.024,0.009-0.036,0.014
		c-2.271,0.907-5.176,1.67-8.561,2.169c-0.017,0.002-0.034,0.004-0.051,0.007c-0.658,0.097-1.333,0.184-2.026,0.259
		c-0.113,0.012-0.232,0.02-0.346,0.032c-0.605,0.063-1.218,0.121-1.847,0.167c-0.288,0.021-0.59,0.032-0.883,0.049
		c-0.474,0.028-0.943,0.059-1.429,0.077C28.297,28.984,27.487,29,26.66,29s-1.637-0.016-2.432-0.044
		c-0.486-0.018-0.955-0.049-1.429-0.077c-0.293-0.017-0.595-0.028-0.883-0.049c-0.63-0.045-1.242-0.104-1.847-0.167
		c-0.114-0.012-0.233-0.02-0.346-0.032c-0.693-0.076-1.368-0.163-2.026-0.259c-0.017-0.002-0.034-0.004-0.051-0.007
		c-3.385-0.5-6.29-1.263-8.561-2.169c-0.012-0.004-0.024-0.009-0.036-0.014c-0.419-0.168-0.812-0.342-1.186-0.519
		c-0.043-0.021-0.089-0.041-0.132-0.062c-0.336-0.162-0.647-0.328-0.945-0.497c-0.07-0.04-0.144-0.079-0.212-0.12
		c-0.259-0.152-0.495-0.307-0.721-0.463c-0.086-0.06-0.175-0.12-0.257-0.18c-0.191-0.141-0.362-0.283-0.526-0.426
		c-0.089-0.079-0.178-0.157-0.26-0.236c-0.134-0.13-0.252-0.261-0.363-0.392c-0.078-0.092-0.153-0.185-0.219-0.277
		c-0.088-0.123-0.163-0.246-0.23-0.369c-0.054-0.099-0.102-0.198-0.143-0.297c-0.049-0.121-0.088-0.242-0.116-0.362
		C3.701,21.823,3.66,21.661,3.66,21.5v-8.207c0.12,0.109,0.257,0.216,0.387,0.324C4.119,13.677,4.186,13.737,4.262,13.797z M26.66,2
		c13.555,0,23,3.952,23,7.5s-9.445,7.5-23,7.5s-23-3.952-23-7.5S13.106,2,26.66,2z"/>
</g>
<g>
</g>
<g>
</g>
<g>
</g>
<g>
</g>
<g>
</g>
<g>
</g>
<g>
</g>
<g>
</g>
<g>
</g>
<g>
</g>
<g>
</g>
<g>
</g>
<g>
</g>
<g>
</g>
<g>
</g>
</svg>
